<svg width="40" height="40" viewBox="0 0 40 40" fill="none" xmlns="http://www.w3.org/2000/svg">
<g filter="url(#filter0_d_24529_3)">
<rect x="4" width="32" height="32" rx="8" fill="#EEEEEE"/>
<path d="M18.9522 5.37318C20.1887 7.8055 16.3828 9.45753 14.6368 7.63304C13.9092 6.85577 14.2438 5.35369 16.0086 4.53742C16.8918 4.11954 18.1284 3.73965 18.9522 5.37318Z" fill="black"/>
<path d="M26.7363 4.30299C28.0816 6.95074 23.9364 8.74973 22.0363 6.76329C21.2442 5.91603 21.608 4.28249 23.5315 3.39324C24.4922 2.93787 25.838 2.52549 26.7363 4.30299Z" fill="black"/>
<path fill-rule="evenodd" clip-rule="evenodd" d="M18.7758 26.9371C21.5914 27.2465 24.5219 26.4032 25.6539 24.6617C26.6109 23.2006 25.8277 22.6948 24.7249 23.8744C22.4038 26.4317 19.9952 25.2795 18.9798 22.6948L19.2411 22.6108C24.1446 20.7283 27.2204 15.6158 25.2765 12.7221C22.6062 8.73273 14.2496 12.3002 13.2046 17.8911C12.247 23.0602 14.7425 26.5157 18.7758 26.9371ZM21.7943 13.0035C22.6358 14.2957 21.6204 18.8749 18.5733 20.9538C18.4864 20.307 18.4864 19.6052 18.5442 18.8749C19.1536 13.7618 20.895 11.6554 21.7943 13.0035Z" fill="black"/>
</g>
<defs>
<filter id="filter0_d_24529_3" x="0" y="0" width="40" height="40" filterUnits="userSpaceOnUse" color-interpolation-filters="sRGB">
<feFlood flood-opacity="0" result="BackgroundImageFix"/>
<feColorMatrix in="SourceAlpha" type="matrix" values="0 0 0 0 0 0 0 0 0 0 0 0 0 0 0 0 0 0 127 0" result="hardAlpha"/>
<feOffset dy="4"/>
<feGaussianBlur stdDeviation="2"/>
<feComposite in2="hardAlpha" operator="out"/>
<feColorMatrix type="matrix" values="0 0 0 0 0 0 0 0 0 0 0 0 0 0 0 0 0 0 0.25 0"/>
<feBlend mode="normal" in2="BackgroundImageFix" result="effect1_dropShadow_24529_3"/>
<feBlend mode="normal" in="SourceGraphic" in2="effect1_dropShadow_24529_3" result="shape"/>
</filter>
</defs>
</svg>
